<svg id="Capa_1" enable-background="new 0 0 512 512" height="512" viewBox="0 0 512 512" width="512" xmlns="http://www.w3.org/2000/svg"><g><path d="m239.433 97.833c4.142 0 7.5-3.357 7.5-7.5v-4.142c0-4.143-3.358-7.5-7.5-7.5s-7.5 3.357-7.5 7.5v4.142c0 4.143 3.358 7.5 7.5 7.5z"/><path d="m272.567 97.833c4.142 0 7.5-3.357 7.5-7.5v-4.142c0-4.143-3.358-7.5-7.5-7.5s-7.5 3.357-7.5 7.5v4.142c0 4.143 3.358 7.5 7.5 7.5z"/><path d="m405.1 180.667c4.142 0 7.5-3.357 7.5-7.5v-4.142c0-4.143-3.358-7.5-7.5-7.5s-7.5 3.357-7.5 7.5v4.142c0 4.143 3.358 7.5 7.5 7.5z"/><path d="m73.767 263.5c4.142 0 7.5-3.357 7.5-7.5v-4.142c0-4.143-3.358-7.5-7.5-7.5s-7.5 3.357-7.5 7.5v4.142c0 4.143 3.357 7.5 7.5 7.5z"/><path d="m496.5 298.2h-2.846c1.143-2.801 1.779-5.86 1.779-9.067v-28.991c0-21.726-15.556-39.88-36.114-43.926.842-.738 1.671-1.495 2.476-2.287 11.009-10.839 17.072-25.314 17.072-40.762v-10.967c4.929-2.673 8.283-7.894 8.283-13.884v-24.85c0-22.405-18.228-40.634-40.633-40.634h-49.7c-22.406 0-40.634 18.229-40.634 40.634v24.85c0 5.99 3.355 11.211 8.284 13.884v10.092c0 17.433 7.726 33.178 19.87 43.866-10.888 2.06-20.389 8.071-26.959 16.485v-1.776c0-8.547-6.953-15.5-15.5-15.5h-13.89c1.144-2.801 1.779-5.86 1.779-9.067v-28.991c0-21.726-15.556-39.88-36.113-43.927.833-.731 1.655-1.48 2.452-2.264 11.024-10.841 17.095-25.325 17.095-40.785v-10.966c4.929-2.673 8.283-7.894 8.283-13.884v-24.85c-.001-22.405-18.229-40.633-40.634-40.633h-49.7c-22.405 0-40.633 18.228-40.633 40.633v24.851c0 5.99 3.355 11.21 8.283 13.884v10.148c0 17.403 7.723 33.13 19.862 43.81-20.713 3.923-36.429 22.147-36.429 43.983v28.991c0 3.207.636 6.267 1.779 9.067h-13.89c-6.436 0-11.966 3.945-14.306 9.542v-18.609c0-22.405-18.228-40.633-40.634-40.633h-49.7c-22.405 0-40.633 18.227-40.633 40.633v24.851c0 5.99 3.355 11.21 8.283 13.884v10.091c0 17.433 7.726 33.178 19.871 43.866-20.717 3.919-36.437 22.145-36.437 43.984v28.992c0 3.207.635 6.266 1.779 9.066h-2.845c-8.547 0-15.5 6.953-15.5 15.5v17.134c0 8.547 6.953 15.5 15.5 15.5h1.067v67.05c0 8.703 7.08 15.783 15.783 15.783h25.625c4.142 0 7.5-3.357 7.5-7.5s-3.358-7.5-7.5-7.5h-25.625c-.432 0-.783-.352-.783-.783v-17.35h448.867v17.35c0 .432-.352.783-.784.783h-391.675c-4.142 0-7.5 3.357-7.5 7.5s3.358 7.5 7.5 7.5h391.675c8.703 0 15.784-7.08 15.784-15.783v-149.885h1.066c8.547 0 15.5-6.953 15.5-15.5v-17.133c0-8.547-6.953-15.5-15.5-15.5zm-35.407-65.941-7.846 22.198c-.052.148-.162.456-.642.517-.485.06-.662-.212-.749-.343l-16.176-24.264h14.978c3.67 0 7.186.672 10.435 1.892zm-89.91-83.943v-24.85c0-14.135 11.499-25.634 25.634-25.634h49.7c14.134 0 25.633 11.499 25.633 25.634v24.85c0 .432-.352.783-.783.783h-33.133c-14.134 0-25.633-11.499-25.633-25.633 0-4.143-3.358-7.5-7.5-7.5s-7.5 3.357-7.5 7.5c0 14.134-11.499 25.633-25.633 25.633-.433.001-.785-.351-.785-.783zm8.284 23.976v-8.898c10.536-1.975 19.646-8.025 25.633-16.45 6.397 9.001 16.359 15.291 27.813 16.797-1.347 1.356-2.18 3.223-2.18 5.285v4.142c0 4.143 3.358 7.5 7.5 7.5s7.5-3.357 7.5-7.5v-4.142c0-1.888-.703-3.607-1.854-4.926h19.987v9.067c0 11.396-4.473 22.076-12.595 30.072-8.12 7.994-18.861 12.32-30.281 12.122-22.896-.356-41.523-19.677-41.523-43.069zm54.113 81.965-11.443 8.582c-.276.208-.663.207-.94 0l-11.443-8.582 11.913-17.869zm-40.905-23.89h14.978l-16.176 24.264c-.087.131-.268.401-.749.343-.48-.061-.589-.368-.642-.518l-7.846-22.197c3.25-1.22 6.765-1.892 10.435-1.892zm-29.775 29.775c0-7.098 2.5-13.621 6.662-18.743l6.383 18.056c2.004 5.672 6.958 9.658 12.927 10.403.667.083 1.331.124 1.99.124 3.703 0 7.23-1.296 10.028-3.624l11.307 8.48c2.788 2.091 6.128 3.137 9.47 3.137 3.34 0 6.682-1.046 9.47-3.137l11.307-8.48c2.798 2.327 6.324 3.624 10.028 3.624.659 0 1.324-.041 1.99-.124 5.969-.745 10.922-4.731 12.927-10.402l6.383-18.057c4.161 5.122 6.661 11.644 6.661 18.742v28.991c0 5-4.067 9.067-9.066 9.067h-99.4c-5 0-9.067-4.067-9.067-9.067zm-13.221 38.058h-8.867v-34.7h1.066c2.135 0 4.17-.434 6.022-1.218v26.851c0 3.207.635 6.267 1.779 9.067zm-54.252-148.775-7.847 22.198c-.052.148-.161.456-.642.517-.486.063-.662-.212-.749-.343l-16.176-24.264h14.978c3.671 0 7.186.672 10.436 1.892zm-89.91-83.942v-24.85c0-14.134 11.499-25.633 25.633-25.633h49.7c14.134 0 25.633 11.499 25.633 25.633v24.851c0 .432-.352.783-.783.783-12.145 0-22.71-8.621-25.121-20.499-1.485-7.321-7.986-12.635-15.458-12.635h-18.243c-7.471 0-13.972 5.313-15.458 12.634-2.411 11.879-12.976 20.5-25.121 20.5-.431 0-.782-.352-.782-.784zm8.283 24.033v-8.958c15.962-3.016 29.004-15.465 32.321-31.808.073-.357.391-.617.757-.617h18.243c.366 0 .685.26.757.618 3.317 16.342 16.359 28.791 32.321 31.807v9.775c0 11.405-4.479 22.092-12.612 30.09-8.131 7.997-18.899 12.293-30.312 12.104-22.869-.382-41.475-19.676-41.475-43.011zm54.113 81.908-11.443 8.582c-.277.207-.664.207-.94 0l-11.443-8.582 11.913-17.87zm-40.905-23.891h14.978l-16.176 24.264c-.087.131-.268.405-.749.343-.48-.061-.589-.368-.642-.517l-7.846-22.198c3.25-1.22 6.765-1.892 10.435-1.892zm-29.775 29.776c0-7.098 2.5-13.621 6.661-18.743l6.382 18.057c2.005 5.671 6.959 9.656 12.928 10.401.667.083 1.33.124 1.99.124 3.703 0 7.229-1.296 10.027-3.623l11.308 8.481c2.788 2.091 6.129 3.137 9.47 3.137s6.683-1.046 9.47-3.137l11.308-8.48c2.798 2.327 6.324 3.623 10.027 3.623.659 0 1.324-.041 1.99-.124 5.969-.745 10.923-4.73 12.928-10.401l6.383-18.057c4.161 5.122 6.661 11.645 6.661 18.743v28.99c0 5-4.067 9.067-9.066 9.067h-99.4c-4.999 0-9.066-4.067-9.066-9.067v-28.991zm-27.61 53.558c0-.275.224-.5.5-.5h171.755c.276 0 .5.225.5.5v17.133c0 .275-.224.5-.5.5h-171.755c-.276 0-.5-.225-.5-.5zm-129.773.283v-24.85c0-14.134 11.499-25.633 25.633-25.633h49.7c14.135 0 25.634 11.499 25.634 25.633v24.851c0 .432-.352.783-.784.783h-33.133c-14.134 0-25.633-11.499-25.633-25.634 0-4.143-3.358-7.5-7.5-7.5s-7.5 3.357-7.5 7.5c0 14.135-11.499 25.634-25.633 25.634-.432 0-.784-.352-.784-.784zm8.283 23.975v-8.897c10.536-1.975 19.646-8.026 25.633-16.451 6.397 9.001 16.358 15.292 27.813 16.797-1.347 1.356-2.179 3.222-2.179 5.284v4.142c0 4.143 3.358 7.5 7.5 7.5s7.5-3.357 7.5-7.5v-4.142c0-1.887-.702-3.607-1.853-4.925h19.986v9.067c0 11.397-4.473 22.076-12.595 30.073-8.12 7.994-18.864 12.302-30.281 12.121-22.896-.356-41.524-19.677-41.524-43.069zm81.627 59.967-7.847 22.199c-.052.148-.161.455-.641.516-.483.056-.662-.212-.749-.343l-16.176-24.264h14.978c3.67 0 7.186.672 10.435 1.892zm-27.514 21.998-11.443 8.583c-.275.207-.663.208-.94 0l-11.443-8.583 11.913-17.869zm-40.904-23.89h14.978l-16.176 24.264c-.087.132-.267.408-.749.343-.48-.061-.589-.368-.641-.517l-7.847-22.198c3.249-1.22 6.764-1.892 10.435-1.892zm-29.775 29.775c0-7.098 2.5-13.621 6.661-18.742l6.383 18.057c2.004 5.672 6.958 9.657 12.927 10.402.667.083 1.331.124 1.99.124 3.703 0 7.229-1.297 10.028-3.624l11.308 8.482c2.788 2.091 6.129 3.137 9.47 3.137s6.683-1.046 9.47-3.137l11.308-8.481c2.798 2.327 6.324 3.624 10.028 3.624.659 0 1.324-.041 1.99-.124 5.969-.745 10.922-4.73 12.927-10.401l6.383-18.058c4.161 5.122 6.661 11.645 6.661 18.742v28.992c0 4.999-4.067 9.066-9.067 9.066h-99.4c-4.999 0-9.066-4.067-9.066-9.066v-28.993zm-16.067 71.192c-.276 0-.5-.225-.5-.5v-17.134c0-.275.224-.5.5-.5h155.689v18.134zm464.934 49.7h-448.867v-34.7h147.122c4.142 0 7.5-3.357 7.5-7.5v-33.134-83.093c0-4.143-3.358-7.5-7.5-7.5s-7.5 3.357-7.5 7.5v75.594h-8.868c1.143-2.8 1.779-5.86 1.779-9.066v-28.992c0-21.726-15.557-39.88-36.114-43.926.842-.738 1.671-1.495 2.476-2.287 11.009-10.839 17.072-25.314 17.072-40.762v-10.966c3.179-1.724 5.698-4.51 7.089-7.877v10.842c0 8.547 6.953 15.5 15.5 15.5h1.066v11.94c0 4.143 3.358 7.5 7.5 7.5s7.5-3.357 7.5-7.5v-11.94h139.622v75.333c0 4.143 3.358 7.5 7.5 7.5h147.122v117.534zm16.566-133.034c0 .275-.224.5-.5.5h-155.689v-18.133h155.689c.276 0 .5.225.5.5z"/></g></svg>